<svg xmlns="http://www.w3.org/2000/svg" xmlns:xlink="http://www.w3.org/1999/xlink" width="983" zoomAndPan="magnify" viewBox="0 0 737.25 328.49999" height="438" preserveAspectRatio="xMidYMid meet" version="1.0"><defs><g/><clipPath id="fc12dfb5ce"><path d="M 0.1875 0 L 736.316406 0 L 736.316406 328 L 0.1875 328 Z M 0.1875 0 " clip-rule="nonzero"/></clipPath><clipPath id="02923fe31c"><path d="M 0.1875 0 L 184.21875 0 L 184.21875 327.535156 L 0.1875 327.535156 Z M 0.1875 0 " clip-rule="nonzero"/></clipPath><clipPath id="187438165d"><path d="M 552.28125 0 L 736.316406 0 L 736.316406 327.535156 L 552.28125 327.535156 Z M 552.28125 0 " clip-rule="nonzero"/></clipPath><clipPath id="90a9f663c5"><path d="M 184.21875 0 L 368.25 0 L 368.25 327.535156 L 184.21875 327.535156 Z M 184.21875 0 " clip-rule="nonzero"/></clipPath><clipPath id="f19d343e5d"><path d="M 368.25 0 L 552.28125 0 L 552.28125 327.535156 L 368.25 327.535156 Z M 368.25 0 " clip-rule="nonzero"/></clipPath><clipPath id="1f4a1d08b6"><path d="M 0.1875 97.75 L 736.3125 97.75 L 736.3125 229.792969 L 0.1875 229.792969 Z M 0.1875 97.75 " clip-rule="nonzero"/></clipPath><clipPath id="8b1c5a06d7"><path d="M 22.492188 121.5625 L 74.914062 121.5625 L 74.914062 174 L 22.492188 174 Z M 22.492188 121.5625 " clip-rule="nonzero"/></clipPath><clipPath id="0732d636f9"><path d="M 42 181 L 55 181 L 55 206.183594 L 42 206.183594 Z M 42 181 " clip-rule="nonzero"/></clipPath></defs><g clip-path="url(#fc12dfb5ce)"><path fill="#ffffff" d="M 0.1875 0 L 736.316406 0 L 736.316406 328 L 0.1875 328 Z M 0.1875 0 " fill-opacity="1" fill-rule="nonzero"/><path fill="#ffffff" d="M 0.1875 0 L 736.316406 0 L 736.316406 328 L 0.1875 328 Z M 0.1875 0 " fill-opacity="1" fill-rule="nonzero"/></g><g clip-path="url(#02923fe31c)"><path fill="#96e176" d="M 0.1875 0 L 184.21875 0 L 184.21875 327.535156 L 0.1875 327.535156 Z M 0.1875 0 " fill-opacity="1" fill-rule="nonzero"/></g><g clip-path="url(#187438165d)"><path fill="#85e7f8" d="M 552.28125 0 L 736.316406 0 L 736.316406 327.535156 L 552.28125 327.535156 Z M 552.28125 0 " fill-opacity="1" fill-rule="nonzero"/></g><g clip-path="url(#90a9f663c5)"><path fill="#fde37d" d="M 184.21875 0 L 368.25 0 L 368.25 327.535156 L 184.21875 327.535156 Z M 184.21875 0 " fill-opacity="1" fill-rule="nonzero"/></g><g clip-path="url(#f19d343e5d)"><path fill="#ff914d" d="M 368.25 0 L 552.28125 0 L 552.28125 327.535156 L 368.25 327.535156 Z M 368.25 0 " fill-opacity="1" fill-rule="nonzero"/></g><g clip-path="url(#1f4a1d08b6)"><path fill="#f2f2f2" d="M 736.3125 97.75 L 736.3125 229.792969 L 0.183594 229.792969 L 0.183594 97.75 Z M 736.3125 97.75 " fill-opacity="1" fill-rule="nonzero"/></g><g clip-path="url(#8b1c5a06d7)"><path fill="#000000" d="M 48.703125 121.5625 C 55.941406 121.5625 62.492188 124.484375 67.234375 129.210938 C 71.980469 133.9375 74.914062 140.46875 74.914062 147.679688 C 74.914062 154.894531 71.980469 161.421875 67.234375 166.148438 C 62.492188 170.875 55.941406 173.800781 48.703125 173.800781 C 41.464844 173.800781 34.914062 170.875 30.167969 166.148438 C 25.425781 161.421875 22.492188 154.894531 22.492188 147.679688 C 22.492188 140.46875 25.425781 133.9375 30.167969 129.210938 C 34.914062 124.484375 41.464844 121.5625 48.703125 121.5625 Z M 64.222656 132.214844 C 60.25 128.257812 54.765625 125.808594 48.703125 125.808594 C 42.640625 125.808594 37.15625 128.257812 33.183594 132.214844 C 29.210938 136.171875 26.753906 141.640625 26.753906 147.679688 C 26.753906 153.71875 29.210938 159.1875 33.183594 163.148438 C 37.15625 167.105469 42.640625 169.550781 48.703125 169.550781 C 54.765625 169.550781 60.25 167.105469 64.222656 163.148438 C 68.195312 159.1875 70.652344 153.71875 70.652344 147.679688 C 70.652344 141.640625 68.195312 136.171875 64.222656 132.214844 Z M 64.222656 132.214844 " fill-opacity="1" fill-rule="nonzero"/></g><path fill="#000000" d="M 45.847656 171.566406 L 51.558594 171.566406 L 51.558594 182.503906 L 45.847656 182.503906 Z M 45.847656 171.566406 " fill-opacity="1" fill-rule="evenodd"/><g clip-path="url(#0732d636f9)"><path fill="#000000" d="M 48.703125 181.015625 C 51.902344 181.015625 54.515625 183.625 54.515625 186.8125 L 54.515625 200.386719 C 54.515625 203.574219 51.902344 206.183594 48.703125 206.183594 C 45.503906 206.183594 42.886719 203.574219 42.886719 200.386719 L 42.886719 186.8125 C 42.886719 183.625 45.503906 181.015625 48.703125 181.015625 Z M 48.703125 181.015625 " fill-opacity="1" fill-rule="evenodd"/></g><path fill="#000000" d="M 30.21875 145.507812 C 30.71875 141.253906 32.660156 137.441406 35.542969 134.570312 C 38.429688 131.695312 42.253906 129.757812 46.523438 129.261719 C 47.097656 129.195312 47.617188 129.359375 48.046875 129.742188 C 48.480469 130.125 48.703125 130.621094 48.703125 131.195312 L 48.703125 131.554688 C 48.703125 132.542969 47.96875 133.367188 46.980469 133.484375 C 43.707031 133.875 40.773438 135.363281 38.558594 137.570312 C 36.34375 139.777344 34.851562 142.703125 34.457031 145.964844 C 34.339844 146.949219 33.511719 147.679688 32.519531 147.679688 L 32.160156 147.679688 C 31.582031 147.679688 31.085938 147.457031 30.703125 147.027344 C 30.316406 146.597656 30.152344 146.082031 30.21875 145.507812 Z M 30.21875 145.507812 " fill-opacity="1" fill-rule="nonzero"/><g fill="#000000" fill-opacity="1"><g transform="translate(78.957234, 206.784936)"><g><path d="M 38.804688 -41.636719 C 51.070312 -43.050781 54.726562 -52.132812 54.257812 -61.804688 L 54.257812 -61.921875 C 53.902344 -70.652344 48.359375 -82.5625 29.132812 -82.5625 L 1.414062 -82.5625 L 1.414062 -81.382812 C 1.414062 -81.382812 8.019531 -81.03125 8.726562 -74.308594 L 8.726562 -8.257812 C 8.019531 -1.414062 1.414062 -1.179688 1.414062 -1.179688 L 1.414062 0 L 34.792969 0 C 53.546875 0 57.441406 -13.683594 57.441406 -21.820312 L 57.441406 -22.054688 C 57.441406 -34.203125 50.601562 -39.039062 38.804688 -41.636719 Z M 27.71875 -80.558594 C 27.71875 -80.558594 44.464844 -81.148438 44.464844 -63.691406 L 44.464844 -63.574219 C 44.464844 -63.574219 45.410156 -42.226562 29.367188 -42.226562 L 19.109375 -42.226562 L 19.109375 -80.558594 Z M 46.941406 -23.824219 C 46.941406 -19.226562 46.941406 -2.125 31.847656 -2.125 L 19.109375 -2.125 L 19.109375 -40.101562 L 32.082031 -40.101562 C 32.082031 -40.101562 46.941406 -39.867188 46.941406 -23.945312 Z M 46.941406 -23.824219 "/></g></g></g><g fill="#000000" fill-opacity="1"><g transform="translate(137.80897, 206.784936)"><g><path d="M 66.640625 -40.808594 C 66.640625 -40.808594 68.292969 -83.390625 34.085938 -83.390625 C -0.589844 -83.390625 1.414062 -40.808594 1.414062 -40.808594 C 1.414062 -40.808594 -0.824219 0.824219 34.085938 0.824219 C 68.882812 0.824219 66.640625 -40.808594 66.640625 -40.808594 Z M 34.085938 -1.296875 C 10.261719 -1.296875 12.148438 -41.28125 12.148438 -41.28125 C 12.148438 -41.28125 10.617188 -81.265625 34.085938 -81.265625 C 55.90625 -81.265625 55.90625 -41.28125 55.90625 -41.28125 C 55.90625 -41.28125 56.96875 -1.296875 34.085938 -1.296875 Z M 34.085938 -1.296875 "/></g></g></g><g fill="#000000" fill-opacity="1"><g transform="translate(205.977911, 206.784936)"><g><path d="M 1.414062 0 L 19.34375 0 L 19.460938 -1.179688 C 19.460938 -1.179688 12.382812 -2.476562 13.917969 -11.441406 L 18.164062 -28.308594 L 43.050781 -28.308594 L 47.0625 -11.441406 C 49.539062 -2.476562 42.460938 -1.179688 42.460938 -1.179688 L 42.816406 0 L 67.230469 0 L 66.875 -1.179688 C 66.875 -1.179688 59.210938 -2.476562 56.851562 -11.441406 L 40.808594 -71.121094 C 38.332031 -80.203125 45.410156 -81.382812 45.410156 -81.382812 L 45.054688 -82.5625 L 20.050781 -82.5625 L 20.40625 -81.382812 C 20.40625 -81.382812 20.996094 -81.265625 21.9375 -80.914062 C 23.945312 -80.085938 27.480469 -77.609375 26.183594 -71.121094 L 10.851562 -11.441406 C 9.199219 -2.476562 1.652344 -1.179688 1.652344 -1.179688 Z M 18.988281 -30.667969 L 29.722656 -74.777344 L 42.109375 -30.546875 Z M 18.988281 -30.667969 "/></g></g></g><g fill="#000000" fill-opacity="1"><g transform="translate(274.618616, 206.784936)"><g><path d="M 20.285156 -55.199219 C 17.339844 -57.085938 13.683594 -60.507812 13.683594 -66.875 C 13.683594 -74.660156 20.40625 -80.914062 28.070312 -80.914062 C 50.011719 -80.914062 49.539062 -49.890625 49.539062 -49.890625 L 51.660156 -49.890625 L 51.660156 -82.210938 L 50.480469 -82.210938 C 50.480469 -82.210938 50.246094 -74.308594 48.121094 -74.308594 C 47.769531 -74.308594 47.414062 -74.542969 46.941406 -75.015625 C 43.050781 -79.023438 36.917969 -83.152344 28.070312 -83.152344 C 0.589844 -83.152344 -3.890625 -57.085938 14.980469 -46.472656 L 28.898438 -37.625 C 34.203125 -34.324219 43.40625 -30.785156 43.40625 -19.226562 C 43.40625 -6.25 34.914062 -1.179688 25.476562 -1.179688 C 3.300781 -1.179688 3.65625 -32.199219 3.65625 -32.199219 L 1.414062 -32.199219 L 1.535156 0 L 2.710938 0 C 2.710938 0 2.949219 -7.902344 4.953125 -7.902344 C 5.191406 -7.902344 5.542969 -7.785156 5.898438 -7.429688 L 6.015625 -7.429688 C 6.015625 -7.3125 6.132812 -7.195312 6.25 -7.195312 C 10.378906 -3.066406 16.867188 1.0625 25.476562 1.0625 C 57.792969 1.0625 64.046875 -29.132812 39.277344 -43.285156 Z M 20.285156 -55.199219 "/></g></g></g><g fill="#000000" fill-opacity="1"><g transform="translate(330.521855, 206.784936)"><g/></g></g><g fill="#000000" fill-opacity="1"><g transform="translate(360.006683, 206.784936)"><g><path d="M 57.558594 -73.128906 C 57.558594 -81.148438 64.871094 -81.382812 64.871094 -81.382812 L 64.871094 -82.5625 L 39.867188 -82.5625 L 39.867188 -81.382812 C 39.867188 -81.382812 47.296875 -81.03125 47.296875 -73.128906 L 47.296875 -18.398438 L 19.34375 -75.722656 C 20.757812 -81.148438 26.421875 -81.382812 26.421875 -81.382812 L 26.421875 -82.5625 L 1.414062 -82.5625 L 1.414062 -81.382812 C 1.414062 -81.382812 8.726562 -81.03125 8.726562 -73.128906 L 8.726562 -9.4375 C 8.726562 -1.414062 1.414062 -1.179688 1.414062 -1.179688 L 1.414062 0 L 26.421875 0 L 26.421875 -1.179688 C 26.421875 -1.179688 19.109375 -1.535156 19.109375 -9.4375 L 19.109375 -69.589844 L 47.296875 -11.558594 L 47.296875 -9.4375 C 47.296875 -1.414062 39.867188 -1.179688 39.867188 -1.179688 L 39.867188 0 L 64.871094 0 L 64.871094 -1.179688 C 64.871094 -1.179688 57.558594 -1.535156 57.558594 -9.4375 Z M 57.558594 -73.128906 "/></g></g></g><g fill="#000000" fill-opacity="1"><g transform="translate(426.406535, 206.784936)"><g><path d="M 66.640625 -40.808594 C 66.640625 -40.808594 68.292969 -83.390625 34.085938 -83.390625 C -0.589844 -83.390625 1.414062 -40.808594 1.414062 -40.808594 C 1.414062 -40.808594 -0.824219 0.824219 34.085938 0.824219 C 68.882812 0.824219 66.640625 -40.808594 66.640625 -40.808594 Z M 34.085938 -1.296875 C 10.261719 -1.296875 12.148438 -41.28125 12.148438 -41.28125 C 12.148438 -41.28125 10.617188 -81.148438 34.085938 -81.148438 C 55.90625 -81.148438 55.90625 -41.28125 55.90625 -41.28125 C 55.90625 -41.28125 56.96875 -1.296875 34.085938 -1.296875 Z M 34.085938 -1.296875 "/></g></g></g><g fill="#000000" fill-opacity="1"><g transform="translate(494.575477, 206.784936)"><g><path d="M 23.589844 0 L 48.59375 0 L 48.242188 -1.179688 C 48.242188 -1.179688 47.652344 -1.296875 46.707031 -1.652344 C 44.703125 -2.476562 41.28125 -4.835938 42.460938 -11.441406 L 57.914062 -71.121094 C 59.445312 -80.085938 66.996094 -81.382812 66.996094 -81.382812 L 67.230469 -82.5625 L 48.949219 -82.5625 L 48.832031 -81.382812 C 48.832031 -81.382812 55.90625 -80.085938 54.375 -71.121094 L 38.921875 -11.441406 C 38.921875 -10.851562 38.804688 -10.378906 38.6875 -9.90625 C 38.449219 -10.378906 38.332031 -10.851562 38.097656 -11.441406 L 22.175781 -71.121094 C 19.699219 -80.085938 26.773438 -81.382812 26.773438 -81.382812 L 26.421875 -82.5625 L 1.414062 -82.5625 L 1.769531 -81.382812 C 1.769531 -81.382812 9.4375 -80.085938 11.792969 -71.121094 L 27.835938 -11.441406 C 30.3125 -2.359375 23.234375 -1.179688 23.234375 -1.179688 Z M 23.589844 0 "/></g></g></g><g fill="#000000" fill-opacity="1"><g transform="translate(563.334121, 206.784936)"><g><path d="M 1.414062 0 L 19.34375 0 L 19.460938 -1.179688 C 19.460938 -1.179688 12.382812 -2.476562 13.917969 -11.441406 L 18.164062 -28.070312 L 43.050781 -28.070312 L 47.0625 -11.441406 C 49.539062 -2.476562 42.460938 -1.179688 42.460938 -1.179688 L 42.816406 0 L 67.230469 0 L 66.875 -1.179688 C 66.875 -1.179688 59.210938 -2.476562 56.734375 -11.441406 L 40.808594 -71.121094 C 38.332031 -80.203125 45.410156 -81.382812 45.410156 -81.382812 L 45.054688 -82.5625 L 20.050781 -82.5625 L 20.40625 -81.382812 C 20.40625 -81.382812 20.996094 -81.265625 21.9375 -80.914062 C 23.945312 -80.085938 27.480469 -77.609375 26.183594 -71.121094 L 10.851562 -11.441406 C 9.199219 -2.476562 1.652344 -1.179688 1.652344 -1.179688 Z M 18.988281 -30.667969 L 29.722656 -74.777344 L 42.109375 -30.546875 Z M 18.988281 -30.667969 "/></g></g></g><g fill="#000000" fill-opacity="1"><g transform="translate(631.974825, 206.784936)"><g><path d="M 20.285156 -55.199219 C 17.339844 -57.085938 13.683594 -60.507812 13.683594 -66.875 C 13.683594 -74.660156 20.40625 -80.914062 28.070312 -80.914062 C 50.011719 -80.914062 49.421875 -49.890625 49.421875 -49.890625 L 51.660156 -49.890625 L 51.660156 -82.210938 L 50.480469 -82.210938 C 50.480469 -82.210938 50.128906 -71.359375 46.941406 -75.015625 C 43.050781 -78.90625 36.917969 -83.152344 28.070312 -83.152344 C 0.589844 -83.152344 -3.890625 -57.085938 14.980469 -46.472656 L 28.898438 -37.625 C 34.203125 -34.324219 43.40625 -30.785156 43.40625 -19.226562 C 43.40625 -6.25 34.914062 -1.179688 25.476562 -1.179688 C 3.300781 -1.179688 3.65625 -32.199219 3.65625 -32.199219 L 1.414062 -32.199219 L 1.535156 0 L 2.710938 0 C 2.710938 0 2.949219 -10.144531 5.898438 -7.429688 C 6.015625 -7.3125 6.132812 -7.195312 6.25 -7.195312 C 10.378906 -3.066406 16.867188 1.0625 25.476562 1.0625 C 57.792969 1.0625 64.046875 -29.132812 39.277344 -43.285156 Z M 20.285156 -55.199219 "/></g></g></g><g fill="#000000" fill-opacity="1"><g transform="translate(687.878065, 206.784936)"><g><path d="M 1.414062 -5.660156 C 1.414062 -2.242188 3.773438 0 7.195312 0 C 10.496094 0 12.855469 -2.242188 12.855469 -5.660156 C 12.855469 -9.082031 10.496094 -11.324219 7.195312 -11.324219 C 3.773438 -11.324219 1.414062 -9.082031 1.414062 -5.660156 Z M 1.414062 -5.660156 "/></g></g></g></svg>