<svg xmlns="http://www.w3.org/2000/svg" xmlns:xlink="http://www.w3.org/1999/xlink" width="983" zoomAndPan="magnify" viewBox="0 0 737.25 809.999993" height="1080" preserveAspectRatio="xMidYMid meet" version="1.0"><defs><clipPath id="5f8e0c0906"><path d="M 0 0.410156 L 184.125 0.410156 L 184.125 809.308594 L 0 809.308594 Z M 0 0.410156 " clip-rule="nonzero"/></clipPath><clipPath id="e1bbd2e69c"><path d="M 552.375 0.410156 L 736.5 0.410156 L 736.5 809.308594 L 552.375 809.308594 Z M 552.375 0.410156 " clip-rule="nonzero"/></clipPath><clipPath id="fd443b14d7"><path d="M 184.125 0.691406 L 368.25 0.691406 L 368.25 809.585938 L 184.125 809.585938 Z M 184.125 0.691406 " clip-rule="nonzero"/></clipPath><clipPath id="13cb47352d"><path d="M 368.25 0.691406 L 552.375 0.691406 L 552.375 809.585938 L 368.25 809.585938 Z M 368.25 0.691406 " clip-rule="nonzero"/></clipPath></defs><g clip-path="url(#5f8e0c0906)"><path fill="#96e176" d="M 0 0.410156 L 184.125 0.410156 L 184.125 809.308594 L 0 809.308594 Z M 0 0.410156 " fill-opacity="1" fill-rule="nonzero"/></g><g clip-path="url(#e1bbd2e69c)"><path fill="#85e7f8" d="M 552.375 0.410156 L 736.5 0.410156 L 736.5 809.308594 L 552.375 809.308594 Z M 552.375 0.410156 " fill-opacity="1" fill-rule="nonzero"/></g><g clip-path="url(#fd443b14d7)"><path fill="#fde37d" d="M 184.125 0.691406 L 368.25 0.691406 L 368.25 809.585938 L 184.125 809.585938 Z M 184.125 0.691406 " fill-opacity="1" fill-rule="nonzero"/></g><g clip-path="url(#13cb47352d)"><path fill="#ff914d" d="M 368.25 0.691406 L 552.375 0.691406 L 552.375 809.585938 L 368.25 809.585938 Z M 368.25 0.691406 " fill-opacity="1" fill-rule="nonzero"/></g></svg>